<svg width="28" height="28" viewBox="0 0 28 28" fill="none" xmlns="http://www.w3.org/2000/svg">
<g clip-path="url(#clip0_127_14533)">
<path d="M12.8234 5.5185C14.3458 5.5185 15.5826 4.28314 15.5826 2.75928C15.5826 1.23497 14.3458 0 12.8234 0C11.2994 0 10.0636 1.23497 10.0636 2.75928C10.0636 4.28314 11.2994 5.5185 12.8234 5.5185Z" fill="white"/>
<path d="M17.0873 21.1541C16.3541 23.6999 14.0071 25.5696 11.2283 25.5696C7.86319 25.5696 5.12662 22.8329 5.12662 19.4688C5.12662 16.9787 6.62891 14.8354 8.77284 13.8883V11.3019C5.26185 12.3594 2.69653 15.6186 2.69653 19.4688C2.69653 24.1727 6.52379 28 11.2282 28C14.6566 28 17.6116 25.9624 18.9665 23.0389L18.0032 21.1463C17.7328 21.1485 17.4195 21.1513 17.0873 21.1541Z" fill="white"/>
<path d="M25.1261 24.4294L21.4302 17.1631C21.1543 16.6194 20.5967 16.2772 19.9867 16.2772H15.253V15.1978H19.327C19.7338 15.1978 20.0758 14.9851 20.2966 14.6788C20.4402 14.4793 20.5423 14.2475 20.5423 13.9824C20.5423 13.3115 19.9988 12.7673 19.327 12.7673H16.8726H15.253V9.10615C15.253 8.09924 14.5064 6.67572 12.8234 6.67572C11.4812 6.67572 10.3931 7.76402 10.3931 9.10615V17.0383C10.3931 18.4075 11.503 19.5175 12.8723 19.5175H17.3267H18.9933L22.2387 25.8985C22.5239 26.4605 23.0931 26.7848 23.6837 26.7848C23.9313 26.7848 24.1823 26.7282 24.4169 26.6081C25.2157 26.203 25.5329 25.2269 25.1261 24.4294Z" fill="white"/>
</g>
<defs>
<clipPath id="clip0_127_14533">
<rect width="28" height="28" fill="white"/>
</clipPath>
</defs>
</svg>
