<svg width="40" height="40" viewBox="0 0 40 40" fill="none" xmlns="http://www.w3.org/2000/svg">
<mask id="mask0_108_8189" style="mask-type:alpha" maskUnits="userSpaceOnUse" x="0" y="0" width="40" height="40">
<rect width="40" height="40" fill="#D9D9D9"/>
</mask>
<g mask="url(#mask0_108_8189)">
<path d="M29.6095 5.33336H10.9898C8.78623 5.33336 6.99988 7.12422 6.99988 9.33336V36C6.99988 38.2092 8.78623 40 10.9898 40H29.6095C31.813 40 33.5994 38.2092 33.5994 36V9.33336C33.5994 7.12422 31.813 5.33336 29.6095 5.33336Z" fill="black"/>
<path d="M39.9998 4V30.6667C39.9966 31.7266 39.5752 32.7421 38.8276 33.4916C38.0801 34.2411 37.3164 34.6635 36.2592 34.6667V9.33333C36.2592 7.56522 36.0932 5.50024 34.8461 4.25C33.599 2.99976 31.373 2.66667 29.6093 2.66667H15.219C15.4934 1.8886 16.0011 1.21466 16.6726 0.737251C17.344 0.259838 18.1463 0.00231935 18.9695 0H36.2592C37.3164 0.00316545 38.0801 0.425609 38.8276 1.17507C39.5752 1.92453 39.9966 2.94011 39.9998 4Z" fill="black"/>
</g>
</svg>
