<svg width="40" height="40" viewBox="0 0 40 40" fill="none" xmlns="http://www.w3.org/2000/svg">
<mask id="mask0_108_8187" style="mask-type:alpha" maskUnits="userSpaceOnUse" x="0" y="0" width="40" height="40">
<rect width="40" height="40" fill="#D9D9D9"/>
</mask>
<g mask="url(#mask0_108_8187)">
<path d="M13.6212 3.63636C13.6212 2.44395 14.5364 1.57248 15.709 1.57248H24.2916C25.4639 1.57248 26.379 2.44395 26.379 3.63636V5.89681H27.9254V3.63636C27.9254 1.57709 26.3167 0 24.2916 0H15.709C13.6839 0 12.0748 1.57709 12.0748 3.63636V5.89681H13.6212V3.63636Z" fill="black"/>
<path d="M10.8571 40H29.1432C30.9064 40 32.2746 38.4229 32.2746 36.4619V12.1867H7.72546V36.4619C7.72546 38.4229 9.09367 40 10.8571 40ZM24.9292 15.941C24.9292 15.5068 25.2754 15.1547 25.7024 15.1547C26.1294 15.1547 26.4756 15.5068 26.4756 15.941V34.5159C26.4756 34.9501 26.1294 35.3021 25.7024 35.3021C25.2754 35.3021 24.9292 34.9501 24.9292 34.5159V15.941ZM19.2268 15.941C19.2268 15.5068 19.573 15.1547 20 15.1547C20.427 15.1547 20.7732 15.5068 20.7732 15.941V34.5159C20.7732 34.9501 20.427 35.3021 20 35.3021C19.573 35.3021 19.2268 34.9501 19.2268 34.5159V15.941ZM13.5245 15.941C13.5245 15.5068 13.8707 15.1547 14.2977 15.1547C14.7247 15.1547 15.0709 15.5068 15.0709 15.941V34.5159C15.0709 34.9501 14.7247 35.3021 14.2977 35.3021C13.8707 35.3021 13.5245 34.9501 13.5245 34.5159V15.941Z" fill="black"/>
<path d="M6.933 10.6142H33.067C34.1347 10.6142 35 9.73433 35 8.64865C35 7.56296 34.1347 6.68304 33.067 6.68304H6.933C5.86532 6.68304 5 7.56296 5 8.64865C5 9.73433 5.86532 10.6142 6.933 10.6142Z" fill="black"/>
</g>
</svg>
