<svg width="46" height="46" viewBox="0 0 46 46" fill="none" xmlns="http://www.w3.org/2000/svg">
<g filter="url(#filter0_d_159_6060)">
<circle cx="23" cy="19" r="19" fill="white"/>
</g>
<mask id="mask0_159_6060" style="mask-type:alpha" maskUnits="userSpaceOnUse" x="12" y="8" width="22" height="22">
<rect x="12.1025" y="8.15381" width="21.7436" height="21.7436" fill="#D9D9D9"/>
</mask>
<g mask="url(#mask0_159_6060)">
<path d="M19.5069 10.1305C19.5069 9.48231 20.0043 9.00859 20.6418 9.00859H25.3072C25.9444 9.00859 26.4419 9.48231 26.4419 10.1305V11.3593H27.2825V10.1305C27.2825 9.0111 26.408 8.15381 25.3072 8.15381H20.6418C19.5409 8.15381 18.6663 9.0111 18.6663 10.1305V11.3593H19.5069V10.1305Z" fill="#161616"/>
<path d="M18.0044 29.8974H27.9445C28.9029 29.8974 29.6466 29.0401 29.6466 27.9741V14.7784H16.302V27.9741C16.302 29.0401 17.0457 29.8974 18.0044 29.8974ZM25.6538 16.8191C25.6538 16.5831 25.8419 16.3918 26.0741 16.3918C26.3062 16.3918 26.4944 16.5831 26.4944 16.8191V26.9163C26.4944 27.1523 26.3062 27.3437 26.0741 27.3437C25.8419 27.3437 25.6538 27.1523 25.6538 26.9163V16.8191ZM22.554 16.8191C22.554 16.5831 22.7422 16.3918 22.9743 16.3918C23.2064 16.3918 23.3946 16.5831 23.3946 16.8191V26.9163C23.3946 27.1523 23.2064 27.3437 22.9743 27.3437C22.7422 27.3437 22.554 27.1523 22.554 26.9163V16.8191ZM19.4543 16.8191C19.4543 16.5831 19.6425 16.3918 19.8746 16.3918C20.1067 16.3918 20.2949 16.5831 20.2949 16.8191V26.9163C20.2949 27.1523 20.1067 27.3437 19.8746 27.3437C19.6425 27.3437 19.4543 27.1523 19.4543 26.9163V16.8191Z" fill="#161616"/>
<path d="M15.8713 13.9236H30.0775C30.6579 13.9236 31.1282 13.4453 31.1282 12.8551C31.1282 12.265 30.6579 11.7866 30.0775 11.7866H15.8713C15.2909 11.7866 14.8206 12.265 14.8206 12.8551C14.8206 13.4453 15.2909 13.9236 15.8713 13.9236Z" fill="#161616"/>
</g>
<defs>
<filter id="filter0_d_159_6060" x="0" y="0" width="46" height="46" filterUnits="userSpaceOnUse" color-interpolation-filters="sRGB">
<feFlood flood-opacity="0" result="BackgroundImageFix"/>
<feColorMatrix in="SourceAlpha" type="matrix" values="0 0 0 0 0 0 0 0 0 0 0 0 0 0 0 0 0 0 127 0" result="hardAlpha"/>
<feOffset dy="4"/>
<feGaussianBlur stdDeviation="2"/>
<feComposite in2="hardAlpha" operator="out"/>
<feColorMatrix type="matrix" values="0 0 0 0 0 0 0 0 0 0 0 0 0 0 0 0 0 0 0.25 0"/>
<feBlend mode="normal" in2="BackgroundImageFix" result="effect1_dropShadow_159_6060"/>
<feBlend mode="normal" in="SourceGraphic" in2="effect1_dropShadow_159_6060" result="shape"/>
</filter>
</defs>
</svg>
