<svg width="46" height="46" viewBox="0 0 46 46" fill="none" xmlns="http://www.w3.org/2000/svg">
<g filter="url(#filter0_d_159_6061)">
<circle cx="23" cy="19" r="19" fill="white"/>
</g>
<mask id="mask0_159_6061" style="mask-type:alpha" maskUnits="userSpaceOnUse" x="12" y="8" width="22" height="22">
<rect x="12.1538" y="8.15381" width="21.7436" height="21.7436" fill="#D9D9D9"/>
</mask>
<g mask="url(#mask0_159_6061)">
<path d="M25.4096 12.5068L29.3904 16.5071L19.3139 26.633L15.3353 22.6328L25.4096 12.5068ZM32.4111 11.5421L30.6358 9.75808C29.9497 9.06863 28.8356 9.06863 28.1472 9.75808L26.4467 11.467L30.4275 15.4673L32.4111 13.474C32.9432 12.9392 32.9432 12.0768 32.4111 11.5421ZM13.252 28.2555C13.1796 28.5831 13.474 28.8767 13.8001 28.797L18.236 27.7162L14.2574 23.7159L13.252 28.2555Z" fill="#161616"/>
</g>
<defs>
<filter id="filter0_d_159_6061" x="0" y="0" width="46" height="46" filterUnits="userSpaceOnUse" color-interpolation-filters="sRGB">
<feFlood flood-opacity="0" result="BackgroundImageFix"/>
<feColorMatrix in="SourceAlpha" type="matrix" values="0 0 0 0 0 0 0 0 0 0 0 0 0 0 0 0 0 0 127 0" result="hardAlpha"/>
<feOffset dy="4"/>
<feGaussianBlur stdDeviation="2"/>
<feComposite in2="hardAlpha" operator="out"/>
<feColorMatrix type="matrix" values="0 0 0 0 0 0 0 0 0 0 0 0 0 0 0 0 0 0 0.25 0"/>
<feBlend mode="normal" in2="BackgroundImageFix" result="effect1_dropShadow_159_6061"/>
<feBlend mode="normal" in="SourceGraphic" in2="effect1_dropShadow_159_6061" result="shape"/>
</filter>
</defs>
</svg>
