<svg width="46" height="46" viewBox="0 0 46 46" fill="none" xmlns="http://www.w3.org/2000/svg">
<g filter="url(#filter0_d_574_935)">
<circle cx="23" cy="19" r="19" fill="white"/>
</g>
<path fill-rule="evenodd" clip-rule="evenodd" d="M23 30.4783C27.4112 30.4783 31 26.8895 31 22.4783C31 18.1199 27.3677 14.4783 23 14.4783C21.615 14.4783 20.3112 14.8322 19.174 15.4541V13.4348C19.174 11.3251 20.8904 9.60869 23 9.60869C23.9735 9.60869 24.8632 9.97413 25.5392 10.575C25.9529 10.9428 26.5553 11.1017 27.0366 10.8283C27.5611 10.5304 27.7352 9.84645 27.3238 9.40533C26.2437 8.24705 24.7049 7.52173 23 7.52173C19.7396 7.52173 17.087 10.1743 17.087 13.4348V17.0952C15.7912 18.5175 15 20.4072 15 22.4783C15 26.8895 18.5888 30.4783 23 30.4783ZM24.0435 24.2174V22.8251C24.4656 22.5076 24.7391 22.0026 24.7391 21.4348C24.7391 20.4758 23.959 19.6957 23 19.6957C22.0411 19.6957 21.2609 20.4758 21.2609 21.4348C21.2609 22.0026 21.5344 22.5076 21.9565 22.8251V24.2174C21.9565 24.7937 22.4237 25.2609 23 25.2609C23.5763 25.2609 24.0435 24.7937 24.0435 24.2174Z" fill="black"/>
<defs>
<filter id="filter0_d_574_935" x="0" y="0" width="46" height="46" filterUnits="userSpaceOnUse" color-interpolation-filters="sRGB">
<feFlood flood-opacity="0" result="BackgroundImageFix"/>
<feColorMatrix in="SourceAlpha" type="matrix" values="0 0 0 0 0 0 0 0 0 0 0 0 0 0 0 0 0 0 127 0" result="hardAlpha"/>
<feOffset dy="4"/>
<feGaussianBlur stdDeviation="2"/>
<feComposite in2="hardAlpha" operator="out"/>
<feColorMatrix type="matrix" values="0 0 0 0 0 0 0 0 0 0 0 0 0 0 0 0 0 0 0.25 0"/>
<feBlend mode="normal" in2="BackgroundImageFix" result="effect1_dropShadow_574_935"/>
<feBlend mode="normal" in="SourceGraphic" in2="effect1_dropShadow_574_935" result="shape"/>
</filter>
</defs>
</svg>
