<svg width="335" height="812" viewBox="0 0 335 812" fill="none" xmlns="http://www.w3.org/2000/svg">
<g filter="url(#filter0_b_991_15424)">
<mask id="path-1-inside-1_991_15424" fill="white">
<path d="M0 0H78V812H0V0Z"/>
</mask>
<path d="M0 0H78V812H0V0Z" fill="#E5A800" fill-opacity="0.03"/>
<path d="M77 0V812H79V0H77ZM1 812V0H-1V812H1Z" fill="#E5A800" fill-opacity="0.1" mask="url(#path-1-inside-1_991_15424)"/>
</g>
<g filter="url(#filter1_b_991_15424)">
<mask id="path-3-inside-2_991_15424" fill="white">
<path d="M86 0H164V812H86V0Z"/>
</mask>
<path d="M86 0H164V812H86V0Z" fill="#E5A800" fill-opacity="0.03"/>
<path d="M163 0V812H165V0H163ZM87 812V0H85V812H87Z" fill="#E5A800" fill-opacity="0.1" mask="url(#path-3-inside-2_991_15424)"/>
</g>
<g filter="url(#filter2_b_991_15424)">
<mask id="path-5-inside-3_991_15424" fill="white">
<path d="M172 0H249V812H172V0Z"/>
</mask>
<path d="M172 0H249V812H172V0Z" fill="#E5A800" fill-opacity="0.03"/>
<path d="M248 0V812H250V0H248ZM173 812V0H171V812H173Z" fill="#E5A800" fill-opacity="0.1" mask="url(#path-5-inside-3_991_15424)"/>
</g>
<g filter="url(#filter3_b_991_15424)">
<mask id="path-7-inside-4_991_15424" fill="white">
<path d="M257 0H335V812H257V0Z"/>
</mask>
<path d="M257 0H335V812H257V0Z" fill="#E5A800" fill-opacity="0.03"/>
<path d="M334 0V812H336V0H334ZM258 812V0H256V812H258Z" fill="#E5A800" fill-opacity="0.1" mask="url(#path-7-inside-4_991_15424)"/>
</g>
<defs>
<filter id="filter0_b_991_15424" x="-4" y="-4" width="86" height="820" filterUnits="userSpaceOnUse" color-interpolation-filters="sRGB">
<feFlood flood-opacity="0" result="BackgroundImageFix"/>
<feGaussianBlur in="BackgroundImageFix" stdDeviation="2"/>
<feComposite in2="SourceAlpha" operator="in" result="effect1_backgroundBlur_991_15424"/>
<feBlend mode="normal" in="SourceGraphic" in2="effect1_backgroundBlur_991_15424" result="shape"/>
</filter>
<filter id="filter1_b_991_15424" x="82" y="-4" width="86" height="820" filterUnits="userSpaceOnUse" color-interpolation-filters="sRGB">
<feFlood flood-opacity="0" result="BackgroundImageFix"/>
<feGaussianBlur in="BackgroundImageFix" stdDeviation="2"/>
<feComposite in2="SourceAlpha" operator="in" result="effect1_backgroundBlur_991_15424"/>
<feBlend mode="normal" in="SourceGraphic" in2="effect1_backgroundBlur_991_15424" result="shape"/>
</filter>
<filter id="filter2_b_991_15424" x="168" y="-4" width="85" height="820" filterUnits="userSpaceOnUse" color-interpolation-filters="sRGB">
<feFlood flood-opacity="0" result="BackgroundImageFix"/>
<feGaussianBlur in="BackgroundImageFix" stdDeviation="2"/>
<feComposite in2="SourceAlpha" operator="in" result="effect1_backgroundBlur_991_15424"/>
<feBlend mode="normal" in="SourceGraphic" in2="effect1_backgroundBlur_991_15424" result="shape"/>
</filter>
<filter id="filter3_b_991_15424" x="253" y="-4" width="86" height="820" filterUnits="userSpaceOnUse" color-interpolation-filters="sRGB">
<feFlood flood-opacity="0" result="BackgroundImageFix"/>
<feGaussianBlur in="BackgroundImageFix" stdDeviation="2"/>
<feComposite in2="SourceAlpha" operator="in" result="effect1_backgroundBlur_991_15424"/>
<feBlend mode="normal" in="SourceGraphic" in2="effect1_backgroundBlur_991_15424" result="shape"/>
</filter>
</defs>
</svg>
