<svg width="24" height="28" viewBox="0 0 24 28" fill="none" xmlns="http://www.w3.org/2000/svg">
<path d="M10.8234 5.5185C12.3458 5.5185 13.5826 4.28314 13.5826 2.75928C13.5826 1.23497 12.3458 0 10.8234 0C9.29936 0 8.0636 1.23497 8.0636 2.75928C8.0636 4.28314 9.29936 5.5185 10.8234 5.5185Z" fill="white"/>
<path d="M15.0873 21.1541C14.3541 23.6999 12.0071 25.5696 9.22826 25.5696C5.86319 25.5696 3.12662 22.8329 3.12662 19.4688C3.12662 16.9787 4.62891 14.8354 6.77284 13.8883V11.3019C3.26185 12.3594 0.696533 15.6186 0.696533 19.4688C0.696533 24.1727 4.52379 28 9.2282 28C12.6566 28 15.6116 25.9624 16.9665 23.0389L16.0032 21.1463C15.7328 21.1485 15.4195 21.1513 15.0873 21.1541Z" fill="white"/>
<path d="M23.1261 24.4294L19.4302 17.1631C19.1543 16.6194 18.5967 16.2772 17.9867 16.2772H13.253V15.1978H17.327C17.7338 15.1978 18.0758 14.9851 18.2966 14.6788C18.4402 14.4793 18.5423 14.2475 18.5423 13.9824C18.5423 13.3115 17.9988 12.7673 17.327 12.7673H14.8726H13.253V9.10615C13.253 8.09924 12.5064 6.67572 10.8234 6.67572C9.48119 6.67572 8.39307 7.76402 8.39307 9.10615V17.0383C8.39307 18.4075 9.50305 19.5175 10.8723 19.5175H15.3267H16.9933L20.2387 25.8985C20.5239 26.4605 21.0931 26.7848 21.6837 26.7848C21.9313 26.7848 22.1823 26.7282 22.4169 26.6081C23.2157 26.203 23.5329 25.2269 23.1261 24.4294Z" fill="white"/>
</svg>
