<svg width="126" height="101" viewBox="0 0 126 101" fill="none" xmlns="http://www.w3.org/2000/svg">
<rect x="124.607" y="28" width="46" height="123" transform="rotate(90 124.607 28)" stroke="#161616" stroke-width="2"/>
<rect x="72.2144" y="99.7976" width="18.8333" height="18.8333" transform="rotate(-180 72.2144 99.7976)" stroke="#161616" stroke-width="2"/>
<rect x="124.226" y="99.7976" width="18.8333" height="18.8333" transform="rotate(-180 124.226 99.7976)" stroke="#161616" stroke-width="2"/>
<rect x="1" y="1.79761" width="18.8333" height="18.8333" stroke="#161616" stroke-width="2"/>
<rect x="45.4287" y="99.7976" width="18.8333" height="18.8333" transform="rotate(-180 45.4287 99.7976)" stroke="#161616" stroke-width="2"/>
<rect x="97.4407" y="99.7976" width="18.8333" height="18.8333" transform="rotate(-180 97.4407 99.7976)" stroke="#161616" stroke-width="2"/>
<rect x="27.7859" y="1.79761" width="18.8333" height="18.8333" stroke="#161616" stroke-width="2"/>
<rect x="79.7979" y="1.79761" width="18.8333" height="18.8333" stroke="#161616" stroke-width="2"/>
<rect x="19.8333" y="99.7976" width="18.8333" height="18.8333" transform="rotate(-180 19.8333 99.7976)" stroke="#161616" stroke-width="2"/>
<rect x="53.3811" y="1.79761" width="18.8333" height="18.8333" stroke="#161616" stroke-width="2"/>
<rect x="105.393" y="1.79761" width="18.8333" height="18.8333" stroke="#161616" stroke-width="2"/>
</svg>
