<svg width="46" height="46" viewBox="0 0 46 46" fill="none" xmlns="http://www.w3.org/2000/svg">
<g filter="url(#filter0_d_159_6058)">
<circle cx="23" cy="19" r="19" fill="white"/>
</g>
<path d="M21.2468 10.8949C21.1296 10.8628 21.0051 10.8708 20.8929 10.9175C20.7808 10.9642 20.6874 11.0471 20.6277 11.1529L12.1772 25.8943C12.1283 25.9782 12.1025 26.0736 12.1025 26.1707C12.1025 26.2678 12.1283 26.3632 12.1772 26.4471C12.226 26.531 12.2959 26.6006 12.38 26.6491C12.464 26.6975 12.5592 26.7232 12.6563 26.7235H21.1068C21.2534 26.7235 21.394 26.6653 21.4977 26.5616C21.6013 26.4579 21.6596 26.3173 21.6596 26.1707V11.4293C21.6589 11.3073 21.6181 11.1889 21.5435 11.0924C21.4689 10.9958 21.3647 10.9264 21.2468 10.8949ZM20.554 25.6363H13.6108L20.554 13.5042V25.6363Z" fill="#161616"/>
<path d="M33.7732 25.8943L25.3227 11.1529C25.2619 11.0474 25.168 10.9648 25.0555 10.9181C24.943 10.8714 24.8182 10.8632 24.7005 10.8947C24.5829 10.9262 24.4789 10.9957 24.4048 11.0924C24.3307 11.1891 24.2906 11.3075 24.2908 11.4293V26.1707C24.2908 26.3174 24.349 26.458 24.4527 26.5616C24.5564 26.6653 24.697 26.7235 24.8436 26.7235H33.2941C33.3911 26.7232 33.4864 26.6976 33.5704 26.6491C33.6545 26.6006 33.7244 26.531 33.7732 26.4471C33.8221 26.3632 33.8478 26.2679 33.8478 26.1707C33.8478 26.0736 33.8221 25.9783 33.7732 25.8943Z" fill="#161616"/>
<path d="M22.9752 7.92822C22.8286 7.92822 22.6879 7.98646 22.5843 8.09013C22.4806 8.19381 22.4224 8.33441 22.4224 8.48103V9.40236C22.4224 9.54898 22.4806 9.68958 22.5843 9.79326C22.6879 9.89693 22.8286 9.95517 22.9752 9.95517C23.1218 9.95517 23.2624 9.89693 23.3661 9.79326C23.4697 9.68958 23.528 9.54898 23.528 9.40236V8.48103C23.528 8.33441 23.4697 8.19381 23.3661 8.09013C23.2624 7.98646 23.1218 7.92822 22.9752 7.92822Z" fill="#161616"/>
<path d="M22.9752 13.9759C22.8286 13.9759 22.6879 14.0341 22.5843 14.1378C22.4806 14.2415 22.4224 14.3821 22.4224 14.5287V16.2387C22.4224 16.3853 22.4806 16.5259 22.5843 16.6296C22.6879 16.7333 22.8286 16.7915 22.9752 16.7915C23.1218 16.7915 23.2624 16.7333 23.3661 16.6296C23.4697 16.5259 23.528 16.3853 23.528 16.2387V14.5287C23.528 14.3821 23.4697 14.2415 23.3661 14.1378C23.2624 14.0341 23.1218 13.9759 22.9752 13.9759Z" fill="#161616"/>
<path d="M22.9752 10.5596C22.8286 10.5596 22.6879 10.6178 22.5843 10.7215C22.4806 10.8252 22.4224 10.9658 22.4224 11.1124V12.8187C22.4224 12.9653 22.4806 13.1059 22.5843 13.2096C22.6879 13.3133 22.8286 13.3715 22.9752 13.3715C23.1218 13.3715 23.2624 13.3133 23.3661 13.2096C23.4697 13.1059 23.528 12.9653 23.528 12.8187V11.1124C23.528 10.9658 23.4697 10.8252 23.3661 10.7215C23.2624 10.6178 23.1218 10.5596 22.9752 10.5596Z" fill="#161616"/>
<path d="M22.9754 20.8122C22.9015 20.8122 22.8284 20.827 22.7604 20.8557C22.6923 20.8844 22.6307 20.9264 22.5792 20.9793C22.5276 21.0322 22.4872 21.0949 22.4603 21.1637C22.4334 21.2325 22.4206 21.3059 22.4226 21.3798V23.0861C22.4226 23.2327 22.4808 23.3733 22.5845 23.477C22.6881 23.5806 22.8288 23.6389 22.9754 23.6389C23.122 23.6389 23.2626 23.5806 23.3663 23.477C23.4699 23.3733 23.5282 23.2327 23.5282 23.0861V21.3798C23.5301 21.3059 23.5173 21.2325 23.4904 21.1637C23.4635 21.0949 23.4231 21.0322 23.3716 20.9793C23.32 20.9264 23.2584 20.8844 23.1904 20.8557C23.1223 20.827 23.0492 20.8122 22.9754 20.8122Z" fill="#161616"/>
<path d="M22.9752 17.3922C22.8286 17.3922 22.6879 17.4505 22.5843 17.5541C22.4806 17.6578 22.4224 17.7984 22.4224 17.945V19.655C22.4224 19.8016 22.4806 19.9422 22.5843 20.0459C22.6879 20.1496 22.8286 20.2078 22.9752 20.2078C23.1218 20.2078 23.2624 20.1496 23.3661 20.0459C23.4697 19.9422 23.528 19.8016 23.528 19.655V17.945C23.528 17.7984 23.4697 17.6578 23.3661 17.5541C23.2624 17.4505 23.1218 17.3922 22.9752 17.3922Z" fill="#161616"/>
<path d="M22.9752 24.2286C22.8286 24.2286 22.6879 24.2868 22.5843 24.3905C22.4806 24.4941 22.4224 24.6348 22.4224 24.7814V26.4877C22.4224 26.6343 22.4806 26.7749 22.5843 26.8786C22.6879 26.9822 22.8286 27.0405 22.9752 27.0405C23.1218 27.0405 23.2624 26.9822 23.3661 26.8786C23.4697 26.7749 23.528 26.6343 23.528 26.4877V24.7814C23.528 24.6348 23.4697 24.4941 23.3661 24.3905C23.2624 24.2868 23.1218 24.2286 22.9752 24.2286Z" fill="#161616"/>
<path d="M22.9752 27.6449C22.8286 27.6449 22.6879 27.7031 22.5843 27.8068C22.4806 27.9104 22.4224 28.051 22.4224 28.1977V29.119C22.4224 29.2656 22.4806 29.4062 22.5843 29.5099C22.6879 29.6136 22.8286 29.6718 22.9752 29.6718C23.1218 29.6718 23.2624 29.6136 23.3661 29.5099C23.4697 29.4062 23.528 29.2656 23.528 29.119V28.1977C23.528 28.051 23.4697 27.9104 23.3661 27.8068C23.2624 27.7031 23.1218 27.6449 22.9752 27.6449Z" fill="#161616"/>
<defs>
<filter id="filter0_d_159_6058" x="0" y="0" width="46" height="46" filterUnits="userSpaceOnUse" color-interpolation-filters="sRGB">
<feFlood flood-opacity="0" result="BackgroundImageFix"/>
<feColorMatrix in="SourceAlpha" type="matrix" values="0 0 0 0 0 0 0 0 0 0 0 0 0 0 0 0 0 0 127 0" result="hardAlpha"/>
<feOffset dy="4"/>
<feGaussianBlur stdDeviation="2"/>
<feComposite in2="hardAlpha" operator="out"/>
<feColorMatrix type="matrix" values="0 0 0 0 0 0 0 0 0 0 0 0 0 0 0 0 0 0 0.25 0"/>
<feBlend mode="normal" in2="BackgroundImageFix" result="effect1_dropShadow_159_6058"/>
<feBlend mode="normal" in="SourceGraphic" in2="effect1_dropShadow_159_6058" result="shape"/>
</filter>
</defs>
</svg>
