<svg width="41" height="40" viewBox="0 0 41 40" fill="none" xmlns="http://www.w3.org/2000/svg">
<path d="M16.822 5.45762C16.6065 5.39855 16.3773 5.41316 16.171 5.49914C15.9646 5.58511 15.7929 5.73752 15.6831 5.93219L0.137303 33.0508C0.047378 33.2052 0 33.3807 0 33.5593C0 33.738 0.047378 33.9134 0.137303 34.0678C0.227136 34.222 0.355733 34.3501 0.510335 34.4393C0.664937 34.5285 0.840173 34.5757 1.01866 34.5763H16.5644C16.8341 34.5763 17.0928 34.4691 17.2835 34.2784C17.4742 34.0877 17.5814 33.829 17.5814 33.5593V6.44067C17.5801 6.21623 17.505 5.99844 17.3678 5.82082C17.2306 5.64319 17.0389 5.51558 16.822 5.45762ZM15.5475 32.5763H2.77459L15.5475 10.2576V32.5763Z" fill="black"/>
<path d="M39.8659 33.0509L24.3202 5.93223C24.2084 5.73803 24.0356 5.58619 23.8286 5.5003C23.6217 5.41441 23.3921 5.39928 23.1757 5.45725C22.9593 5.51523 22.768 5.64307 22.6317 5.82091C22.4954 5.99875 22.4216 6.21663 22.4219 6.4407V33.5593C22.4219 33.8291 22.529 34.0877 22.7197 34.2784C22.9104 34.4692 23.1691 34.5763 23.4388 34.5763H38.9846C39.1631 34.5757 39.3383 34.5285 39.4929 34.4393C39.6475 34.3501 39.7761 34.2221 39.8659 34.0678C39.9559 33.9135 40.0032 33.738 40.0032 33.5593C40.0032 33.3807 39.9559 33.2052 39.8659 33.0509Z" fill="black"/>
<path d="M20.0017 0C19.732 0 19.4733 0.107143 19.2826 0.297858C19.0919 0.488573 18.9847 0.747238 18.9847 1.01695V2.71186C18.9847 2.98158 19.0919 3.24024 19.2826 3.43096C19.4733 3.62167 19.732 3.72881 20.0017 3.72881C20.2714 3.72881 20.5301 3.62167 20.7208 3.43096C20.9115 3.24024 21.0186 2.98158 21.0186 2.71186V1.01695C21.0186 0.747238 20.9115 0.488573 20.7208 0.297858C20.5301 0.107143 20.2714 0 20.0017 0Z" fill="black"/>
<path d="M20.0017 11.1254C19.732 11.1254 19.4733 11.2326 19.2826 11.4233C19.0919 11.614 18.9847 11.8727 18.9847 12.1424V15.2882C18.9847 15.5579 19.0919 15.8165 19.2826 16.0072C19.4733 16.198 19.732 16.3051 20.0017 16.3051C20.2714 16.3051 20.5301 16.198 20.7208 16.0072C20.9115 15.8165 21.0186 15.5579 21.0186 15.2882V12.1424C21.0186 11.8727 20.9115 11.614 20.7208 11.4233C20.5301 11.2326 20.2714 11.1254 20.0017 11.1254Z" fill="black"/>
<path d="M20.0017 4.8407C19.732 4.8407 19.4733 4.94784 19.2826 5.13856C19.0919 5.32927 18.9847 5.58794 18.9847 5.85765V8.99663C18.9847 9.26634 19.0919 9.52501 19.2826 9.71572C19.4733 9.90644 19.732 10.0136 20.0017 10.0136C20.2714 10.0136 20.5301 9.90644 20.7208 9.71572C20.9115 9.52501 21.0186 9.26634 21.0186 8.99663V5.85765C21.0186 5.58794 20.9115 5.32927 20.7208 5.13856C20.5301 4.94784 20.2714 4.8407 20.0017 4.8407Z" fill="black"/>
<path d="M20.0017 23.7017C19.8658 23.7016 19.7313 23.7288 19.6061 23.7816C19.481 23.8344 19.3676 23.9117 19.2728 24.0091C19.178 24.1064 19.1037 24.2217 19.0542 24.3482C19.0047 24.4748 18.9811 24.6099 18.9847 24.7457V27.8847C18.9847 28.1544 19.0919 28.4131 19.2826 28.6038C19.4733 28.7945 19.732 28.9017 20.0017 28.9017C20.2714 28.9017 20.5301 28.7945 20.7208 28.6038C20.9115 28.4131 21.0186 28.1544 21.0186 27.8847V24.7457C21.0223 24.6099 20.9986 24.4748 20.9491 24.3482C20.8997 24.2217 20.8253 24.1064 20.7305 24.0091C20.6357 23.9117 20.5224 23.8344 20.3972 23.7816C20.272 23.7288 20.1375 23.7016 20.0017 23.7017Z" fill="black"/>
<path d="M20.0017 17.4102C19.732 17.4102 19.4733 17.5173 19.2826 17.708C19.0919 17.8987 18.9847 18.1574 18.9847 18.4271V21.5729C18.9847 21.8426 19.0919 22.1013 19.2826 22.292C19.4733 22.4827 19.732 22.5898 20.0017 22.5898C20.2714 22.5898 20.5301 22.4827 20.7208 22.292C20.9115 22.1013 21.0186 21.8426 21.0186 21.5729V18.4271C21.0186 18.1574 20.9115 17.8987 20.7208 17.708C20.5301 17.5173 20.2714 17.4102 20.0017 17.4102Z" fill="black"/>
<path d="M20.0017 29.9865C19.732 29.9865 19.4733 30.0936 19.2826 30.2843C19.0919 30.475 18.9847 30.7337 18.9847 31.0034V34.1424C18.9847 34.4121 19.0919 34.6708 19.2826 34.8615C19.4733 35.0522 19.732 35.1593 20.0017 35.1593C20.2714 35.1593 20.5301 35.0522 20.7208 34.8615C20.9115 34.6708 21.0186 34.4121 21.0186 34.1424V31.0034C21.0186 30.7337 20.9115 30.475 20.7208 30.2843C20.5301 30.0936 20.2714 29.9865 20.0017 29.9865Z" fill="black"/>
<path d="M20.0017 36.2712C19.732 36.2712 19.4733 36.3783 19.2826 36.569C19.0919 36.7597 18.9847 37.0184 18.9847 37.2881V38.983C18.9847 39.2527 19.0919 39.5114 19.2826 39.7021C19.4733 39.8928 19.732 40 20.0017 40C20.2714 40 20.5301 39.8928 20.7208 39.7021C20.9115 39.5114 21.0186 39.2527 21.0186 38.983V37.2881C21.0186 37.0184 20.9115 36.7597 20.7208 36.569C20.5301 36.3783 20.2714 36.2712 20.0017 36.2712Z" fill="black"/>
</svg>
