<svg width="100" height="100" viewBox="0 0 100 100" fill="none" xmlns="http://www.w3.org/2000/svg">
<rect x="2" y="22" width="96" height="55" stroke="#161616" stroke-width="2" stroke-linecap="round" stroke-linejoin="round" stroke-dasharray="8 8"/>
<path fill-rule="evenodd" clip-rule="evenodd" d="M15.9974 54.5139V45.4867H12.8008V46.105C12.8008 47.1169 11.2246 47.1169 11.2246 46.105V44.7186C11.2246 44.2941 11.5777 43.9497 12.0127 43.9497H21.5574C21.9925 43.9497 22.3455 44.2941 22.3455 44.7186V46.105C22.3455 46.5294 21.9925 46.8731 21.5574 46.8731C21.1224 46.8731 20.7693 46.5294 20.7693 46.105V45.4867H17.5728V54.5139H18.9622C19.9994 54.5139 19.9994 56.051 18.9622 56.051H14.6079C13.5708 56.051 13.5708 54.5139 14.6079 54.5139H15.9974ZM26.9591 56.6261H27.7937C28.8308 56.6261 28.8308 58.1632 27.7937 58.1632H24.5491C23.5119 58.1632 23.5119 56.6261 24.5491 56.6261H25.3837V43.3745H24.5491C23.5119 43.3745 23.5119 41.8374 24.5491 41.8374L27.7937 41.8367C28.8308 41.8367 28.8308 43.3745 27.7937 43.3745H26.9591V56.6261Z" fill="#161616"/>
</svg>
